<svg width="450" height="170" viewBox="0 0 450 170" fill="none" xmlns="http://www.w3.org/2000/svg" role="img" aria-label="DevGurav's most used languages">
  <title>DevGurav's most used languages</title>
  <rect x="0" y="0" width="450" height="170" rx="6" fill="none"/>
  <text x="25" y="35" fill="#22d3ee" font-family="'Segoe UI', Ubuntu, Sans-Serif" font-size="18" font-weight="600">Most Used Languages</text>
  <g transform="translate(25, 52)">
    <mask id="bar-round"><rect x="0" y="0" width="400" height="8" rx="4" fill="#fff"/></mask>
    <g mask="url(#bar-round)"><rect x="0.00" y="0" width="151.02" height="8" fill="#f1e05a"/><rect x="151.02" y="0" width="124.08" height="8" fill="#3572A5"/><rect x="275.11" y="0" width="45.52" height="8" fill="#00ADD8"/><rect x="320.63" y="0" width="43.38" height="8" fill="#b07219"/><rect x="364.01" y="0" width="18.25" height="8" fill="#00B4AB"/><rect x="382.26" y="0" width="17.74" height="8" fill="#3178c6"/></g>
  </g>
  <g transform="translate(25, 78)">
      <g transform="translate(0, 0)">
        <circle cx="5" cy="6" r="5" fill="#f1e05a"/>
        <text x="18" y="11" fill="#9fb0c7" font-family="'Segoe UI', Ubuntu, Sans-Serif" font-size="13">JavaScript</text>
        <text x="185" y="11" fill="#9fb0c7" font-family="'Segoe UI', Ubuntu, Sans-Serif" font-size="13" text-anchor="end">37.8%</text>
      </g>
      <g transform="translate(0, 25)">
        <circle cx="5" cy="6" r="5" fill="#3572A5"/>
        <text x="18" y="11" fill="#9fb0c7" font-family="'Segoe UI', Ubuntu, Sans-Serif" font-size="13">Python</text>
        <text x="185" y="11" fill="#9fb0c7" font-family="'Segoe UI', Ubuntu, Sans-Serif" font-size="13" text-anchor="end">31.0%</text>
      </g>
      <g transform="translate(0, 50)">
        <circle cx="5" cy="6" r="5" fill="#00ADD8"/>
        <text x="18" y="11" fill="#9fb0c7" font-family="'Segoe UI', Ubuntu, Sans-Serif" font-size="13">Go</text>
        <text x="185" y="11" fill="#9fb0c7" font-family="'Segoe UI', Ubuntu, Sans-Serif" font-size="13" text-anchor="end">11.4%</text>
      </g>
      <g transform="translate(200, 0)">
        <circle cx="5" cy="6" r="5" fill="#b07219"/>
        <text x="18" y="11" fill="#9fb0c7" font-family="'Segoe UI', Ubuntu, Sans-Serif" font-size="13">Java</text>
        <text x="185" y="11" fill="#9fb0c7" font-family="'Segoe UI', Ubuntu, Sans-Serif" font-size="13" text-anchor="end">10.8%</text>
      </g>
      <g transform="translate(200, 25)">
        <circle cx="5" cy="6" r="5" fill="#00B4AB"/>
        <text x="18" y="11" fill="#9fb0c7" font-family="'Segoe UI', Ubuntu, Sans-Serif" font-size="13">Dart</text>
        <text x="185" y="11" fill="#9fb0c7" font-family="'Segoe UI', Ubuntu, Sans-Serif" font-size="13" text-anchor="end">4.6%</text>
      </g>
      <g transform="translate(200, 50)">
        <circle cx="5" cy="6" r="5" fill="#3178c6"/>
        <text x="18" y="11" fill="#9fb0c7" font-family="'Segoe UI', Ubuntu, Sans-Serif" font-size="13">TypeScript</text>
        <text x="185" y="11" fill="#9fb0c7" font-family="'Segoe UI', Ubuntu, Sans-Serif" font-size="13" text-anchor="end">4.4%</text>
      </g>
  </g>
</svg>
